<svg xmlns="http://www.w3.org/2000/svg" viewBox="0 0 128 128">
  <defs>
    <style>
      .fg { fill: #2563eb; }
      @media (prefers-color-scheme: dark) {
        .fg { fill: #60a5fa; }
      }
    </style>
  </defs>

  <!-- Background circle for better visibility -->
  <circle cx="64" cy="64" r="58" fill="none" stroke="currentColor" stroke-width="2" opacity="0.1"/>

  <!-- Main 'f' shape with functional programming aesthetic -->
  <g class="fg">
    <!-- Vertical stem of 'f' -->
    <path d="M 48 28 Q 52 24 58 24 Q 68 24 72 32 Q 74 38 74 48 L 74 92 Q 74 98 68 98 Q 62 98 58 94 L 58 48 Q 58 38 54 34"
          fill="currentColor" opacity="0.9"/>

    <!-- Horizontal crossbar with lambda-inspired curve -->
    <path d="M 36 54 L 80 54 Q 86 54 86 60 Q 86 66 80 66 L 36 66 Q 30 66 30 60 Q 30 54 36 54 Z"
          fill="currentColor" opacity="0.9"/>

    <!-- Small composition operator dot (subtle functional symbol) -->
    <circle cx="88" cy="42" r="4" fill="currentColor" opacity="0.7"/>

    <!-- Pipeline arrow (subtle) -->
    <path d="M 44 82 L 54 82 L 50 78 M 54 82 L 50 86"
          stroke="currentColor" stroke-width="2.5" fill="none" opacity="0.6" stroke-linecap="round"/>
  </g>
</svg>
